<?xml version="1.0" standalone="no"?>
<!DOCTYPE svg PUBLIC "-//W3C//DTD SVG 20010904//EN"
 "http://www.w3.org/TR/2001/REC-SVG-20010904/DTD/svg10.dtd">
<svg version="1.0" xmlns="http://www.w3.org/2000/svg"
 width="450.000000pt" height="258.000000pt" viewBox="0 0 450.000000 258.000000"
 preserveAspectRatio="xMidYMid meet">

<g transform="translate(0.000000,258.000000) scale(0.100000,-0.100000)"
fill="#000000" stroke="none">
<path d="M360 2571 c0 -5 11 -36 25 -68 13 -32 73 -184 134 -338 112 -288 258
-659 452 -1149 63 -159 111 -294 111 -313 0 -70 32 -67 -554 -59 -291 3 -528
2 -528 -2 0 -8 571 -22 902 -22 145 0 150 1 173 25 15 15 25 36 25 54 0 25
-168 462 -582 1511 -55 140 -109 279 -120 307 -18 49 -38 77 -38 54z"/>
<path d="M530 2533 c11 -26 85 -217 165 -423 164 -421 255 -655 392 -1005 52
-132 117 -298 145 -370 46 -118 79 -184 66 -130 -3 11 -164 427 -358 925 -194
498 -365 936 -380 975 -15 38 -32 71 -38 73 -7 2 -3 -17 8 -45z"/>
<path d="M771 2553 c36 -94 138 -362 246 -648 247 -653 282 -744 374 -984 51
-134 95 -238 97 -231 3 7 26 -9 57 -40 l53 -52 898 -19 c881 -18 1186 -21
1152 -12 -22 5 -23 17 -4 32 17 14 66 -5 66 -25 0 -17 87 -23 468 -28 l322 -4
0 709 c0 390 -3 709 -6 709 -3 0 -29 -22 -58 -50 l-53 -50 -34 17 c-19 10 -38
18 -44 19 -5 2 -34 12 -62 22 -29 11 -53 18 -53 15 0 -3 -6 -1 -12 4 -7 5 -27
8 -45 7 l-31 -2 34 81 c49 115 212 417 274 507 28 41 32 50 22 50 -24 0 -229
-360 -302 -532 -53 -124 -50 -120 -170 -165 -41 -15 -101 -45 -133 -65 -32
-21 -59 -38 -62 -38 -14 0 -111 444 -139 637 -22 157 -44 222 -32 98 11 -118
58 -355 141 -722 4 -16 1 -23 -9 -23 -7 0 -30 -7 -50 -15 -20 -8 -39 -15 -42
-14 -3 0 -15 -11 -28 -25 -12 -14 -26 -26 -32 -26 -14 0 -72 80 -142 195 -125
209 -188 358 -237 560 l-31 130 -53 3 c-83 5 -83 6 -50 -105 58 -195 81 -258
147 -403 43 -93 111 -202 176 -284 94 -117 93 -117 57 -106 -16 4 -31 6 -34 4
-6 -6 -76 81 -150 188 -124 177 -194 343 -293 691 -5 16 -35 17 -442 17 -240
0 -443 -4 -451 -9 -14 -9 -24 -126 -13 -146 11 -17 11 -35 1 -29 -6 3 -8 -5
-5 -20 3 -14 0 -26 -5 -26 -6 0 -7 -6 -2 -12 4 -7 6 -24 5 -38 -8 -72 -86
-379 -100 -391 -4 -3 -36 -16 -70 -29 -146 -53 -471 -320 -513 -421 -6 -16
-20 -29 -32 -31 -22 -3 -22 -3 0 -10 16 -4 33 1 55 18 58 41 102 62 145 66 23
3 79 24 125 47 172 86 261 90 402 18 119 -62 142 -64 246 -26 91 33 97 35 120
25 23 -9 33 2 99 113 34 58 69 109 77 115 16 12 97 9 90 -3 -3 -4 4 -8 15 -8
11 -1 17 2 14 7 -3 6 1 7 9 4 9 -3 16 -10 16 -16 0 -5 8 -8 18 -7 9 1 24 -1
32 -4 8 -3 38 -8 67 -10 28 -3 59 -9 70 -15 10 -5 50 -9 88 -10 78 -1 104 -6
134 -21 11 -6 31 -11 45 -11 14 0 35 -4 48 -9 67 -26 112 -35 116 -23 2 8 10
7 28 -4 13 -9 24 -12 24 -6 0 14 48 5 78 -14 22 -14 22 -15 5 -41 -10 -15 -13
-24 -6 -20 9 6 68 -17 134 -53 10 -5 42 -10 73 -11 34 -2 63 -9 74 -18 9 -9
26 -23 37 -31 17 -13 18 -13 10 0 -4 8 1 6 12 -5 10 -11 54 -38 97 -60 75 -38
80 -43 107 -102 32 -67 50 -147 47 -203 -2 -45 -54 -112 -122 -155 -75 -47
-107 -56 -128 -34 -9 10 -13 21 -10 25 4 5 -1 2 -10 -5 -12 -9 -18 -10 -18 -2
0 6 -17 11 -40 11 -22 0 -57 7 -78 17 -43 19 -39 17 -75 27 -15 5 -32 17 -38
27 -9 18 -11 18 -47 -6 -46 -31 -192 -175 -192 -190 0 -21 43 -91 79 -130 38
-41 81 -98 81 -109 0 -3 -49 -6 -110 -6 l-110 0 0 28 c0 15 9 81 20 147 26
157 26 159 -6 152 -20 -4 -9 13 63 87 103 108 203 232 175 217 -22 -12 -82
-83 -82 -97 0 -27 -264 -272 -369 -343 -76 -51 -171 -84 -171 -59 0 5 -7 8
-15 4 -8 -3 -15 -1 -15 4 0 6 -6 10 -14 10 -7 0 -16 10 -19 21 -6 23 10 43
189 229 104 109 186 199 203 225 15 21 -59 -54 -174 -178 -61 -66 -73 -75 -97
-70 -16 3 -28 9 -28 13 0 4 -14 10 -30 14 -17 3 -41 17 -53 30 -21 22 -29 24
-107 22 -47 -2 -98 -8 -114 -15 -16 -6 -35 -10 -41 -7 -7 2 -15 35 -19 73 -4
38 -13 89 -20 113 -12 39 -14 42 -18 20 -5 -21 -5 -22 -7 -4 -1 24 -30 55 -32
35 -3 -26 -3 -40 5 -106 9 -74 23 -69 26 10 l2 40 13 -55 c23 -90 19 -129 -23
-233 -42 -104 -194 -176 -346 -164 -79 6 -246 64 -354 123 -64 35 -102 43
-102 22 0 -6 -3 -8 -6 -5 -4 3 -15 2 -24 -3 -10 -5 -62 -12 -117 -16 -54 -3
-105 -8 -113 -10 -8 -3 -4 7 10 22 l25 27 -28 -18 c-15 -10 -29 -16 -31 -14
-2 2 -25 62 -52 132 -38 102 -45 130 -35 137 11 6 10 9 -4 11 -13 3 -34 47
-77 159 -245 644 -358 944 -358 955 0 1 391 6 700 9 l145 1 0 45 0 45 -175 -1
c-652 -6 -703 -5 -711 8 -4 7 -25 59 -45 115 -21 57 -42 103 -46 103 -4 0 -3
-12 3 -27z m1296 -115 c-3 -8 -6 -5 -6 6 -1 11 2 17 5 13 3 -3 4 -12 1 -19z"/>
<path d="M3790 2555 c-19 -20 -23 -35 -22 -77 1 -29 -2 -99 -7 -155 -8 -84
-15 -112 -39 -158 -17 -30 -27 -55 -23 -55 17 0 83 77 106 124 28 57 41 120
50 251 l7 90 35 -40 c34 -39 34 -41 28 -110 -8 -86 -33 -200 -52 -238 -23 -46
-10 -50 35 -11 49 42 67 72 77 132 4 26 14 46 26 52 17 10 19 7 19 -33 0 -24
-5 -69 -10 -100 -9 -46 -8 -62 5 -87 8 -16 22 -30 30 -30 17 0 67 69 59 82 -5
8 8 220 21 341 l6 47 -46 0 -45 0 0 -39 c0 -24 -7 -46 -17 -57 -17 -17 -18
-15 -21 38 l-3 56 -98 1 c-92 0 -100 -2 -121 -24z m231 -148 l-21 -21 0 21 c0
12 8 26 18 32 26 15 28 -7 3 -32z"/>
<path d="M2999 1508 c-8 -7 -23 -24 -34 -38 -12 -16 -6 -12 18 9 20 19 37 36
37 38 0 6 -6 3 -21 -9z"/>
<path d="M1238 1433 c7 -3 16 -2 19 1 4 3 -2 6 -13 5 -11 0 -14 -3 -6 -6z"/>
<path d="M1810 1376 c0 -19 3 -37 8 -40 4 -2 6 13 4 35 -5 48 -12 51 -12 5z"/>
<path d="M1258 1383 c7 -3 16 -2 19 1 4 3 -2 6 -13 5 -11 0 -14 -3 -6 -6z"/>
<path d="M2626 1369 c-16 -12 -26 -30 -26 -46 0 -22 3 -24 28 -18 42 10 72 33
72 56 0 15 -5 19 -16 15 -8 -3 -12 -2 -9 4 11 18 -22 11 -49 -11z"/>
<path d="M3249 1333 c-13 -16 -12 -17 4 -4 9 7 17 15 17 17 0 8 -8 3 -21 -13z"/>
<path d="M3271 1275 c-17 -20 -31 -40 -31 -46 0 -6 16 8 35 31 19 23 35 44 35
46 0 10 -10 2 -39 -31z"/>
<path d="M2570 1274 c0 -8 5 -12 10 -9 6 3 10 10 10 16 0 5 -4 9 -10 9 -5 0
-10 -7 -10 -16z"/>
<path d="M2295 1259 c-4 -6 -5 -12 -2 -15 2 -3 7 2 10 11 7 17 1 20 -8 4z"/>
<path d="M2388 1246 c-3 -14 -2 -63 2 -108 4 -46 5 -90 2 -98 -5 -13 -3 -13
11 -1 15 11 17 11 17 -2 0 -8 7 -21 17 -28 15 -13 16 -10 9 40 -8 58 -42 211
-49 218 -3 2 -7 -7 -9 -21z"/>
<path d="M1380 1150 c-23 -7 -23 -8 -3 -9 12 -1 25 4 28 9 3 6 5 10 3 9 -2 -1
-14 -5 -28 -9z"/>
<path d="M2003 1075 c0 -38 2 -53 4 -32 2 20 2 52 0 70 -2 17 -4 1 -4 -38z"/>
<path d="M2231 1083 c-1 -23 3 -44 7 -47 4 -2 6 12 4 32 -5 56 -10 62 -11 15z"/>
<path d="M2106 1090 c5 -14 8 -54 8 -90 -2 -58 -1 -61 8 -30 12 42 5 117 -12
133 -10 9 -10 7 -4 -13z"/>
<path d="M3958 1000 c-18 -16 -28 -30 -22 -30 5 0 23 14 39 30 37 39 25 39
-17 0z"/>
<path d="M1991 983 c-1 -12 4 -25 9 -28 12 -7 12 2 0 30 -8 19 -9 19 -9 -2z"/>
<path d="M1507 610 c8 -44 -22 -117 -57 -135 -40 -21 -74 -19 -95 5 -22 25
-44 27 -23 3 24 -29 28 -40 13 -40 -8 0 -12 3 -10 7 2 3 -6 7 -18 7 -12 1 -96
4 -187 8 -91 4 -168 10 -171 14 -4 3 -14 29 -23 57 l-17 51 -145 7 c-80 4
-148 5 -151 2 -3 -3 0 -19 7 -35 7 -17 9 -43 6 -57 l-7 -27 -315 6 c-203 4
-314 3 -314 -3 0 -6 78 -11 203 -12 l202 -2 -205 -6 c-225 -6 -208 -8 170 -15
173 -4 249 -2 235 5 -17 8 -16 9 10 7 28 -2 30 1 35 38 9 67 12 68 109 62 47
-4 100 -7 117 -7 l32 0 -10 -45 c-17 -78 -26 -75 227 -75 124 0 225 -3 225 -7
-1 -36 -8 -36 -446 -29 -236 3 -536 9 -667 12 -174 5 -237 4 -237 -5 0 -6 4
-11 8 -11 5 0 6 -21 3 -47 -4 -27 -6 -54 -5 -60 1 -7 2 -38 3 -68 l1 -54 78
-4 77 -3 -82 -2 -83 -2 0 -75 0 -75 1160 0 c1024 0 1160 2 1160 15 0 18 -2 18
50 0 37 -13 183 -15 1087 -15 l1045 1 -3 239 -4 239 -100 -5 c-55 -2 -374 -11
-710 -19 -566 -14 -1143 -31 -1865 -55 -442 -15 -460 -14 -460 10 0 19 7 20
113 21 73 1 102 4 82 9 -16 4 -48 8 -69 9 -28 1 -37 4 -30 11 7 7 94 11 240
11 193 1 222 3 186 13 -24 6 -40 14 -36 19 4 4 56 7 116 7 88 0 108 -3 108
-15 0 -22 51 -26 235 -17 94 5 142 10 108 11 -53 1 -63 4 -63 19 -1 16 -1 16
-11 0 -9 -16 -26 -18 -134 -18 -77 0 -125 4 -125 10 0 6 10 10 21 10 27 0 102
22 109 31 7 9 208 14 217 5 4 -3 -31 -6 -77 -6 -105 0 -100 -8 9 -14 46 -3 86
-7 89 -10 3 -3 39 -7 81 -8 l76 -1 -60 -7 -60 -7 55 -2 c30 -1 120 -2 200 -1
115 1 146 4 153 15 6 12 33 15 135 13 l127 -2 -100 -6 c-78 -5 -58 -6 90 -6
105 0 154 2 110 3 -111 5 -122 23 -14 24 46 0 93 4 104 9 12 5 -51 8 -160 8
-101 0 -169 -3 -155 -8 14 -4 -50 -8 -149 -9 -96 0 -176 -3 -179 -6 -3 -3 15
-5 39 -6 24 0 62 -4 84 -8 30 -7 8 -9 -87 -10 -71 0 -128 1 -128 4 0 3 10 10
23 15 15 6 -6 9 -73 10 -78 0 -99 4 -120 20 -23 18 -40 19 -225 18 -136 -1
-174 -3 -118 -7 109 -8 118 -21 12 -20 -75 1 -160 13 -134 19 6 1 -1 6 -15 10
-14 4 -118 8 -232 9 -119 1 -208 5 -208 10 0 5 4 11 8 13 4 2 0 11 -10 20 -17
17 -17 16 -11 -12z m323 -51 l135 -2 -110 -7 c-73 -4 -90 -7 -51 -8 33 -1 57
-4 54 -7 -3 -3 -38 -9 -79 -14 l-74 -8 57 -2 c31 0 60 -5 63 -11 4 -6 -35 -10
-109 -10 -71 0 -116 4 -116 10 0 6 7 10 15 10 8 0 15 5 15 10 0 12 -3 12 -24
4 -9 -3 -16 -12 -16 -20 0 -10 -14 -14 -50 -14 -48 0 -50 1 -38 20 16 24 63
34 122 26 27 -4 47 -3 51 4 4 6 -13 10 -47 11 -29 1 -64 5 -78 10 -16 5 5 7
60 4 47 -2 146 -5 220 -6z m-889 -74 c16 -35 16 -35 -7 -35 -21 0 -24 5 -24
35 0 44 10 44 31 0z m356 -41 c-3 -3 -12 -4 -19 -1 -8 3 -5 6 6 6 11 1 17 -2
13 -5z m680 -70 c-3 -3 -12 -4 -19 -1 -8 3 -5 6 6 6 11 1 17 -2 13 -5z m-494
-11 c-13 -2 -33 -2 -45 0 -13 2 -3 4 22 4 25 0 35 -2 23 -4z m2214 -19 c-3 -3
-12 -4 -19 -1 -8 3 -5 6 6 6 11 1 17 -2 13 -5z m-1844 -11 c-7 -2 -21 -2 -30
0 -10 3 -4 5 12 5 17 0 24 -2 18 -5z m74 1 c-3 -3 -12 -4 -19 -1 -8 3 -5 6 6
6 11 1 17 -2 13 -5z m80 0 c-3 -3 -12 -4 -19 -1 -8 3 -5 6 6 6 11 1 17 -2 13
-5z m1356 -1 c-7 -2 -21 -2 -30 0 -10 3 -4 5 12 5 17 0 24 -2 18 -5z m-1100
-10 c-13 -2 -33 -2 -45 0 -13 2 -3 4 22 4 25 0 35 -2 23 -4z m780 0 c-7 -2
-19 -2 -25 0 -7 3 -2 5 12 5 14 0 19 -2 13 -5z m-245 -10 c-10 -2 -26 -2 -35
0 -10 3 -2 5 17 5 19 0 27 -2 18 -5z m-365 -10 c-7 -2 -19 -2 -25 0 -7 3 -2 5
12 5 14 0 19 -2 13 -5z m1804 -29 c-3 -3 -12 -4 -19 -1 -8 3 -5 6 6 6 11 1 17
-2 13 -5z m-2320 -66 c-3 -8 -6 -5 -6 6 -1 11 2 17 5 13 3 -3 4 -12 1 -19z
m1636 -45 c-7 -2 -19 -2 -25 0 -7 3 -2 5 12 5 14 0 19 -2 13 -5z m75 0 c-10
-2 -28 -2 -40 0 -13 2 -5 4 17 4 22 1 32 -1 23 -4z m-1930 -10 c-10 -2 -28 -2
-40 0 -13 2 -5 4 17 4 22 1 32 -1 23 -4z m1710 0 c-10 -2 -26 -2 -35 0 -10 3
-2 5 17 5 19 0 27 -2 18 -5z m-2601 -9 c-3 -3 -12 -4 -19 -1 -8 3 -5 6 6 6 11
1 17 -2 13 -5z m151 -1 c-27 -2 -69 -2 -95 0 -27 2 -5 3 47 3 52 0 74 -1 48
-3z m159 1 c-3 -3 -12 -4 -19 -1 -8 3 -5 6 6 6 11 1 17 -2 13 -5z m371 -1
c-10 -2 -28 -2 -40 0 -13 2 -5 4 17 4 22 1 32 -1 23 -4z m1720 0 c-10 -2 -28
-2 -40 0 -13 2 -5 4 17 4 22 1 32 -1 23 -4z m-200 -10 c-10 -2 -26 -2 -35 0
-10 3 -2 5 17 5 19 0 27 -2 18 -5z"/>
<path d="M2468 553 c6 -2 18 -2 25 0 6 3 1 5 -13 5 -14 0 -19 -2 -12 -5z"/>
<path d="M2605 549 c28 -5 58 -14 68 -19 11 -7 17 -7 17 0 0 6 31 10 73 11 39
0 81 4 92 9 12 5 -42 8 -140 8 -125 0 -149 -2 -110 -9z"/>
<path d="M2963 543 c9 -2 23 -2 30 0 6 3 -1 5 -18 5 -16 0 -22 -2 -12 -5z"/>
<path d="M3445 531 c3 -5 -9 -12 -27 -14 -18 -2 45 -5 141 -5 153 -2 172 0
161 13 -9 11 -30 15 -74 13 l-61 -1 65 -7 c54 -5 44 -7 -62 -8 -80 -1 -128 2
-128 8 0 6 -5 10 -11 10 -5 0 -8 -4 -4 -9z"/>
<path d="M4293 513 c26 -2 67 -2 90 0 23 2 2 3 -48 3 -49 0 -68 -1 -42 -3z"/>
<path d="M3063 483 c9 -2 25 -2 35 0 9 3 1 5 -18 5 -19 0 -27 -2 -17 -5z"/>
<path d="M2675 470 c-26 -11 77 -11 120 0 23 6 15 8 -35 8 -36 0 -74 -3 -85
-8z"/>
<path d="M2265 460 c-23 -6 -12 -8 43 -9 42 -1 72 3 72 9 0 11 -70 11 -115 0z"/>
<path d="M1865 450 c-30 -5 -18 -8 49 -9 92 -1 114 6 35 12 -24 2 -62 0 -84
-3z"/>
</g>
</svg>
